<svg width="33" height="16" viewBox="0 0 33 16" fill="none" xmlns="http://www.w3.org/2000/svg">
<path d="M1.01639 9.49987C0.464181 9.50892 0.00918698 9.0686 0.000134345 8.51639C-0.00891829 7.96418 0.431398 7.50919 0.983609 7.50013L1.01639 9.49987ZM32.1954 7.2814C32.5923 7.66547 32.6027 8.29855 32.2186 8.69542L25.9598 15.1628C25.5757 15.5597 24.9427 15.5701 24.5458 15.186C24.1489 14.802 24.1385 14.1689 24.5226 13.772L30.086 8.02318L24.3372 2.45981C23.9403 2.07574 23.9299 1.44266 24.314 1.04579C24.698 0.648913 25.3311 0.638534 25.728 1.02261L32.1954 7.2814ZM0.983609 7.50013L31.4836 7.00013L31.5164 8.99987L1.01639 9.49987L0.983609 7.50013Z" fill="black"/>
</svg>
