<svg width="33" height="16" viewBox="0 0 33 16" fill="none" xmlns="http://www.w3.org/2000/svg">
<path d="M31.9836 9.49987C32.5358 9.50892 32.9908 9.0686 32.9999 8.51639C33.0089 7.96418 32.5686 7.50919 32.0164 7.50013L31.9836 9.49987ZM0.804579 7.2814C0.407706 7.66547 0.397327 8.29855 0.781398 8.69542L7.04019 15.1628C7.42426 15.5597 8.05734 15.5701 8.45421 15.186C8.85109 14.802 8.86147 14.1689 8.47739 13.772L2.91402 8.02318L8.66284 2.45981C9.05971 2.07574 9.07009 1.44266 8.68602 1.04579C8.30195 0.648913 7.66887 0.638534 7.272 1.02261L0.804579 7.2814ZM32.0164 7.50013L1.51639 7.00013L1.48361 8.99987L31.9836 9.49987L32.0164 7.50013Z" fill="black"/>
</svg>
