<svg width="155" height="47" viewBox="0 0 155 47" fill="none" xmlns="http://www.w3.org/2000/svg">
<path d="M49.4678 27.6533C48.5798 27.6533 47.7338 27.5273 46.9298 27.2753C46.1258 27.0233 45.4658 26.6813 44.9498 26.2493L45.8318 24.1433C46.8998 24.9353 48.0758 25.3313 49.3598 25.3313C50.8238 25.3313 51.5558 24.7853 51.5558 23.6933C51.5558 22.6853 50.8718 22.1813 49.5038 22.1813H47.3798V19.9313H49.2338C49.8338 19.9313 50.3078 19.7933 50.6558 19.5173C51.0038 19.2413 51.1778 18.8573 51.1778 18.3653C51.1778 17.3813 50.5358 16.8893 49.2518 16.8893C48.0518 16.8893 46.9838 17.2913 46.0478 18.0953L45.1658 16.0433C45.6938 15.5753 46.3418 15.2153 47.1098 14.9633C47.8778 14.6993 48.6758 14.5673 49.5038 14.5673C50.8718 14.5673 51.9398 14.8733 52.7078 15.4853C53.4758 16.0973 53.8598 16.9373 53.8598 18.0053C53.8598 18.6653 53.6918 19.2473 53.3558 19.7513C53.0198 20.2553 52.5518 20.6213 51.9518 20.8493C52.6718 21.0533 53.2298 21.4313 53.6258 21.9833C54.0338 22.5233 54.2378 23.1773 54.2378 23.9453C54.2378 25.0973 53.8118 26.0033 52.9598 26.6633C52.1078 27.3233 50.9438 27.6533 49.4678 27.6533ZM56.4448 27.4553V14.7653H61.4128C63.5728 14.7653 65.2468 15.3173 66.4348 16.4213C67.6228 17.5133 68.2168 19.0733 68.2168 21.1013C68.2168 23.1293 67.6228 24.6953 66.4348 25.7993C65.2468 26.9033 63.5728 27.4553 61.4128 27.4553H56.4448ZM59.2348 25.1693H61.2508C63.9508 25.1693 65.3008 23.8133 65.3008 21.1013C65.3008 18.4013 63.9508 17.0513 61.2508 17.0513H59.2348V25.1693ZM80.542 30.6953V26.3573C80.062 27.2213 79.294 27.6533 78.238 27.6533C77.578 27.6533 76.996 27.4613 76.492 27.0773C75.988 26.6933 75.592 26.1593 75.304 25.4753C75.016 24.7793 74.872 23.9633 74.872 23.0273C74.872 22.0913 75.016 21.2813 75.304 20.5973C75.592 19.9013 75.988 19.3673 76.492 18.9953C76.996 18.6233 77.578 18.4373 78.238 18.4373C79.306 18.4373 80.074 18.8633 80.542 19.7153V14.7653H83.26V19.6973C83.728 18.8573 84.49 18.4373 85.546 18.4373C86.206 18.4373 86.788 18.6233 87.292 18.9953C87.796 19.3673 88.192 19.9013 88.48 20.5973C88.768 21.2813 88.912 22.0913 88.912 23.0273C88.912 23.9633 88.768 24.7793 88.48 25.4753C88.192 26.1593 87.796 26.6933 87.292 27.0773C86.788 27.4613 86.206 27.6533 85.546 27.6533C84.502 27.6533 83.74 27.2273 83.26 26.3753V30.6953H80.542ZM79.084 25.6373C79.528 25.6373 79.888 25.4273 80.164 25.0073C80.44 24.5873 80.578 23.9273 80.578 23.0273C80.578 22.1273 80.44 21.4733 80.164 21.0653C79.888 20.6453 79.528 20.4353 79.084 20.4353C78.64 20.4353 78.28 20.6453 78.004 21.0653C77.728 21.4733 77.59 22.1273 77.59 23.0273C77.59 23.9273 77.722 24.5873 77.986 25.0073C78.262 25.4273 78.628 25.6373 79.084 25.6373ZM84.682 25.6373C85.138 25.6373 85.504 25.4273 85.78 25.0073C86.056 24.5873 86.194 23.9273 86.194 23.0273C86.194 22.1273 86.056 21.4733 85.78 21.0653C85.504 20.6453 85.138 20.4353 84.682 20.4353C84.238 20.4353 83.878 20.6453 83.602 21.0653C83.338 21.4733 83.206 22.1273 83.206 23.0273C83.206 23.9273 83.338 24.5873 83.602 25.0073C83.878 25.4273 84.238 25.6373 84.682 25.6373ZM90.8607 30.6953V18.6173H93.5247V19.9313C93.7647 19.4753 94.1307 19.1153 94.6227 18.8513C95.1267 18.5753 95.6907 18.4373 96.3147 18.4373C97.0827 18.4373 97.7547 18.6233 98.3307 18.9953C98.9187 19.3673 99.3747 19.8953 99.6987 20.5793C100.023 21.2633 100.185 22.0793 100.185 23.0273C100.185 23.9753 100.023 24.7973 99.6987 25.4933C99.3747 26.1773 98.9187 26.7113 98.3307 27.0953C97.7547 27.4673 97.0827 27.6533 96.3147 27.6533C95.7267 27.6533 95.1867 27.5273 94.6947 27.2753C94.2147 27.0233 93.8427 26.6873 93.5787 26.2673V30.6953H90.8607ZM95.5047 25.6193C96.0807 25.6193 96.5487 25.4093 96.9087 24.9893C97.2687 24.5693 97.4487 23.9153 97.4487 23.0273C97.4487 22.1513 97.2687 21.5093 96.9087 21.1013C96.5487 20.6813 96.0807 20.4713 95.5047 20.4713C94.9167 20.4713 94.4427 20.6813 94.0827 21.1013C93.7227 21.5093 93.5427 22.1513 93.5427 23.0273C93.5427 23.9153 93.7227 24.5693 94.0827 24.9893C94.4427 25.4093 94.9167 25.6193 95.5047 25.6193ZM102.128 27.4553V18.6173H104.576V23.9633L108.608 18.6173H110.84V27.4553H108.392V22.1093L104.36 27.4553H102.128ZM113.13 27.7253L112.32 25.5833C113.052 25.3793 113.568 24.9833 113.868 24.3953C114.168 23.7953 114.318 22.8713 114.318 21.6233V18.6173H121.824V27.4553H119.106V20.7233H116.802V21.7133C116.802 23.5253 116.508 24.9233 115.92 25.9073C115.332 26.8913 114.402 27.4973 113.13 27.7253ZM127.194 27.6533C126.534 27.6533 125.952 27.5273 125.448 27.2753C124.944 27.0233 124.542 26.6813 124.242 26.2493C123.954 25.8173 123.81 25.3313 123.81 24.7913C123.81 24.1553 123.978 23.6453 124.314 23.2613C124.65 22.8773 125.196 22.6073 125.952 22.4513C126.708 22.2833 127.71 22.1993 128.958 22.1993H129.606V21.8933C129.606 21.3653 129.486 20.9933 129.246 20.7773C129.006 20.5493 128.598 20.4353 128.022 20.4353C127.542 20.4353 127.032 20.5133 126.492 20.6693C125.964 20.8133 125.436 21.0353 124.908 21.3353L124.17 19.5173C124.482 19.3133 124.86 19.1273 125.304 18.9593C125.76 18.7913 126.234 18.6653 126.726 18.5813C127.218 18.4853 127.686 18.4373 128.13 18.4373C129.498 18.4373 130.518 18.7493 131.19 19.3733C131.862 19.9853 132.198 20.9393 132.198 22.2353V27.4553H129.66V26.1233C129.48 26.5913 129.174 26.9633 128.742 27.2393C128.322 27.5153 127.806 27.6533 127.194 27.6533ZM127.806 25.8353C128.31 25.8353 128.736 25.6613 129.084 25.3133C129.432 24.9653 129.606 24.5153 129.606 23.9633V23.6033H128.976C128.052 23.6033 127.398 23.6873 127.014 23.8553C126.63 24.0113 126.438 24.2873 126.438 24.6833C126.438 25.0193 126.552 25.2953 126.78 25.5113C127.02 25.7273 127.362 25.8353 127.806 25.8353ZM134.525 27.4553V18.6173H137.243V21.8933H140.609V18.6173H143.327V27.4553H140.609V23.9993H137.243V27.4553H134.525ZM149.989 27.6533C149.029 27.6533 148.189 27.4673 147.469 27.0953C146.761 26.7113 146.215 26.1713 145.831 25.4753C145.447 24.7793 145.255 23.9573 145.255 23.0093C145.255 22.0613 145.447 21.2453 145.831 20.5613C146.215 19.8773 146.761 19.3553 147.469 18.9953C148.189 18.6233 149.029 18.4373 149.989 18.4373C150.553 18.4373 151.123 18.5213 151.699 18.6893C152.275 18.8573 152.743 19.0973 153.103 19.4093L152.347 21.2813C152.047 21.0413 151.711 20.8553 151.339 20.7233C150.967 20.5793 150.607 20.5073 150.259 20.5073C149.551 20.5073 148.999 20.7293 148.603 21.1733C148.219 21.6053 148.027 22.2233 148.027 23.0273C148.027 23.8193 148.219 24.4433 148.603 24.8993C148.999 25.3433 149.551 25.5653 150.259 25.5653C150.595 25.5653 150.949 25.4993 151.321 25.3673C151.705 25.2353 152.047 25.0433 152.347 24.7913L153.103 26.6633C152.743 26.9753 152.275 27.2213 151.699 27.4013C151.123 27.5693 150.553 27.6533 149.989 27.6533Z" fill="#333333"/>
<path d="M10.0648 24.1223V6.43225C10.0648 6.43225 4.58395 8.26809 4.24983 8.41333C2.99378 8.95712 1.92377 9.85023 1.16947 10.9845C0.415172 12.1187 0.00896027 13.4454 0 14.8038V29.1069C0.0106561 30.4642 0.416882 31.7895 1.16983 32.9232C1.92277 34.057 2.99033 34.951 4.24396 35.4974C4.57809 35.6427 10.0648 37.4785 10.0648 37.4785V30.5651H7.4035L10.0648 24.1223Z" fill="#60AAFB"/>
<path d="M22.2635 12.4917V0.407837C22.2635 0.407837 16.7768 2.24945 16.4486 2.38888C15.1934 2.93388 14.1242 3.82732 13.3701 4.9613C12.616 6.09527 12.2092 7.4213 12.1987 8.77938V24.2038L14.819 30.5943H12.1987C12.1987 38.9077 12.1987 46.4311 12.1987 46.4311C12.1987 46.4311 17.6854 44.5894 18.0195 44.4442C19.2742 43.8986 20.343 43.0051 21.097 41.8712C21.8511 40.7374 22.2582 39.4116 22.2693 38.0537V19.0274H19.5905L22.2635 12.4917Z" fill="#355DFB"/>
<path d="M34.3738 14.8097C34.3649 13.4512 33.9586 12.1246 33.2043 10.9903C32.45 9.85609 31.3801 8.96295 30.124 8.41915C29.7899 8.27391 24.3091 6.43811 24.3091 6.43811V12.544L26.9821 19.0332H24.3091V37.496C24.3091 37.496 29.7957 35.6601 30.1299 35.5149C31.3835 34.9684 32.451 34.0745 33.204 32.9407C33.9569 31.807 34.3632 30.4817 34.3738 29.1244V14.8097Z" fill="#0000DE"/>
</svg>
