<svg width="159" height="20" viewBox="0 0 159 20" fill="none" xmlns="http://www.w3.org/2000/svg">
<path d="M5.1866 19.36C4.7546 19.36 4.2986 19.328 3.8186 19.264C3.3386 19.216 2.8746 19.144 2.4266 19.048C1.9786 18.952 1.5706 18.848 1.2026 18.736C0.8346 18.624 0.5466 18.52 0.3386 18.424L1.0346 15.448C1.4506 15.624 1.9786 15.816 2.6186 16.024C3.2746 16.216 4.0826 16.312 5.0426 16.312C6.1466 16.312 6.9546 16.104 7.4666 15.688C7.9786 15.272 8.2346 14.712 8.2346 14.008C8.2346 13.576 8.1386 13.216 7.9466 12.928C7.7706 12.624 7.5226 12.384 7.2026 12.208C6.8826 12.016 6.4986 11.888 6.0506 11.824C5.6186 11.744 5.1546 11.704 4.6586 11.704H3.2666V8.824H4.8506C5.2026 8.824 5.5386 8.792 5.8586 8.728C6.1946 8.664 6.4906 8.56 6.7466 8.416C7.0026 8.256 7.2026 8.048 7.3466 7.792C7.5066 7.52 7.5866 7.184 7.5866 6.784C7.5866 6.48 7.5226 6.216 7.3946 5.992C7.2666 5.768 7.0986 5.584 6.8906 5.44C6.6986 5.296 6.4666 5.192 6.1946 5.128C5.9386 5.048 5.6746 5.008 5.4026 5.008C4.7146 5.008 4.0746 5.112 3.4826 5.32C2.9066 5.528 2.3786 5.784 1.8986 6.088L0.6266 3.472C0.8826 3.312 1.1786 3.144 1.5146 2.968C1.8666 2.792 2.2506 2.632 2.6666 2.488C3.0826 2.344 3.5226 2.224 3.9866 2.128C4.4666 2.032 4.9706 1.984 5.4986 1.984C6.4746 1.984 7.3146 2.104 8.0186 2.344C8.7386 2.568 9.3306 2.896 9.7946 3.328C10.2586 3.744 10.6026 4.24 10.8266 4.816C11.0506 5.376 11.1626 5.992 11.1626 6.664C11.1626 7.32 10.9786 7.96 10.6106 8.584C10.2426 9.192 9.7466 9.656 9.1226 9.976C9.9866 10.328 10.6506 10.856 11.1146 11.56C11.5946 12.248 11.8346 13.08 11.8346 14.056C11.8346 14.824 11.7066 15.536 11.4506 16.192C11.1946 16.832 10.7946 17.392 10.2506 17.872C9.7066 18.336 9.0106 18.704 8.1626 18.976C7.3306 19.232 6.3386 19.36 5.1866 19.36ZM20.0192 15.952C20.1952 15.968 20.3952 15.984 20.6192 16C20.8592 16 21.1392 16 21.4592 16C23.3312 16 24.7152 15.528 25.6112 14.584C26.5232 13.64 26.9792 12.336 26.9792 10.672C26.9792 8.928 26.5472 7.608 25.6832 6.712C24.8192 5.816 23.4512 5.368 21.5792 5.368C21.3232 5.368 21.0592 5.376 20.7872 5.392C20.5152 5.392 20.2592 5.408 20.0192 5.44V15.952ZM30.8432 10.672C30.8432 12.112 30.6192 13.368 30.1712 14.44C29.7232 15.512 29.0832 16.4 28.2512 17.104C27.4352 17.808 26.4352 18.336 25.2512 18.688C24.0672 19.04 22.7392 19.216 21.2672 19.216C20.5952 19.216 19.8112 19.184 18.9152 19.12C18.0192 19.072 17.1392 18.96 16.2752 18.784V2.584C17.1392 2.424 18.0352 2.32 18.9632 2.272C19.9072 2.208 20.7152 2.176 21.3872 2.176C22.8112 2.176 24.0992 2.336 25.2512 2.656C26.4192 2.976 27.4192 3.48 28.2512 4.168C29.0832 4.856 29.7232 5.736 30.1712 6.808C30.6192 7.88 30.8432 9.168 30.8432 10.672ZM41.7362 19V2.368H52.8722V5.512H45.4802V8.992H52.0562V12.136H45.4802V19H41.7362ZM63.4167 9.544C63.0967 9.464 62.7207 9.384 62.2887 9.304C61.8567 9.208 61.3927 9.16 60.8967 9.16C60.6727 9.16 60.4007 9.184 60.0807 9.232C59.7767 9.264 59.5447 9.304 59.3847 9.352V19H55.8087V7.048C56.4487 6.824 57.2007 6.616 58.0647 6.424C58.9447 6.216 59.9207 6.112 60.9927 6.112C61.1847 6.112 61.4167 6.128 61.6887 6.16C61.9607 6.176 62.2327 6.208 62.5047 6.256C62.7767 6.288 63.0487 6.336 63.3207 6.4C63.5927 6.448 63.8247 6.512 64.0167 6.592L63.4167 9.544ZM66.0993 12.784C66.0993 11.664 66.2673 10.688 66.6033 9.856C66.9553 9.008 67.4113 8.304 67.9713 7.744C68.5313 7.184 69.1713 6.76 69.8913 6.472C70.6273 6.184 71.3793 6.04 72.1473 6.04C73.9393 6.04 75.3553 6.592 76.3953 7.696C77.4353 8.784 77.9553 10.392 77.9553 12.52C77.9553 12.728 77.9473 12.96 77.9313 13.216C77.9153 13.456 77.8993 13.672 77.8833 13.864H69.7713C69.8513 14.6 70.1953 15.184 70.8033 15.616C71.4113 16.048 72.2273 16.264 73.2513 16.264C73.9073 16.264 74.5473 16.208 75.1713 16.096C75.8113 15.968 76.3313 15.816 76.7313 15.64L77.2113 18.544C77.0193 18.64 76.7633 18.736 76.4433 18.832C76.1233 18.928 75.7633 19.008 75.3633 19.072C74.9793 19.152 74.5633 19.216 74.1153 19.264C73.6673 19.312 73.2193 19.336 72.7713 19.336C71.6353 19.336 70.6433 19.168 69.7953 18.832C68.9633 18.496 68.2673 18.04 67.7073 17.464C67.1633 16.872 66.7553 16.176 66.4833 15.376C66.2273 14.576 66.0993 13.712 66.0993 12.784ZM74.4993 11.416C74.4833 11.112 74.4273 10.816 74.3313 10.528C74.2513 10.24 74.1153 9.984 73.9233 9.76C73.7473 9.536 73.5153 9.352 73.2273 9.208C72.9553 9.064 72.6113 8.992 72.1953 8.992C71.7953 8.992 71.4513 9.064 71.1633 9.208C70.8753 9.336 70.6353 9.512 70.4433 9.736C70.2513 9.96 70.0993 10.224 69.9873 10.528C69.8913 10.816 69.8193 11.112 69.7713 11.416H74.4993ZM81.1149 12.784C81.1149 11.664 81.2829 10.688 81.6189 9.856C81.9709 9.008 82.4269 8.304 82.9869 7.744C83.5469 7.184 84.1869 6.76 84.9069 6.472C85.6429 6.184 86.3949 6.04 87.1629 6.04C88.9549 6.04 90.3709 6.592 91.4109 7.696C92.4509 8.784 92.9709 10.392 92.9709 12.52C92.9709 12.728 92.9629 12.96 92.9469 13.216C92.9309 13.456 92.9149 13.672 92.8989 13.864H84.7869C84.8669 14.6 85.2109 15.184 85.8189 15.616C86.4269 16.048 87.2429 16.264 88.2669 16.264C88.9229 16.264 89.5629 16.208 90.1869 16.096C90.8269 15.968 91.3469 15.816 91.7469 15.64L92.2269 18.544C92.0349 18.64 91.7789 18.736 91.4589 18.832C91.1389 18.928 90.7789 19.008 90.3789 19.072C89.9949 19.152 89.5789 19.216 89.1309 19.264C88.6829 19.312 88.2349 19.336 87.7869 19.336C86.6509 19.336 85.6589 19.168 84.8109 18.832C83.9789 18.496 83.2829 18.04 82.7229 17.464C82.1789 16.872 81.7709 16.176 81.4989 15.376C81.2429 14.576 81.1149 13.712 81.1149 12.784ZM89.5149 11.416C89.4989 11.112 89.4429 10.816 89.3469 10.528C89.2669 10.24 89.1309 9.984 88.9389 9.76C88.7629 9.536 88.5309 9.352 88.2429 9.208C87.9709 9.064 87.6269 8.992 87.2109 8.992C86.8109 8.992 86.4669 9.064 86.1789 9.208C85.8909 9.336 85.6509 9.512 85.4589 9.736C85.2669 9.96 85.1149 10.224 85.0029 10.528C84.9069 10.816 84.8349 11.112 84.7869 11.416H89.5149ZM101.771 19.24C100.731 19.224 99.8825 19.112 99.2265 18.904C98.5865 18.696 98.0745 18.408 97.6905 18.04C97.3225 17.656 97.0665 17.2 96.9225 16.672C96.7945 16.128 96.7305 15.52 96.7305 14.848V0.951999L100.307 0.375999V14.128C100.307 14.448 100.331 14.736 100.379 14.992C100.427 15.248 100.515 15.464 100.643 15.64C100.787 15.816 100.987 15.96 101.243 16.072C101.499 16.184 101.843 16.256 102.275 16.288L101.771 19.24ZM110.5 16.504C110.852 16.504 111.188 16.496 111.508 16.48C111.828 16.464 112.084 16.44 112.276 16.408V13.696C112.132 13.664 111.916 13.632 111.628 13.6C111.34 13.568 111.076 13.552 110.836 13.552C110.5 13.552 110.18 13.576 109.876 13.624C109.588 13.656 109.332 13.728 109.108 13.84C108.884 13.952 108.708 14.104 108.58 14.296C108.452 14.488 108.388 14.728 108.388 15.016C108.388 15.576 108.572 15.968 108.94 16.192C109.324 16.4 109.844 16.504 110.5 16.504ZM110.212 6.04C111.268 6.04 112.148 6.16 112.852 6.4C113.556 6.64 114.116 6.984 114.532 7.432C114.964 7.88 115.268 8.424 115.444 9.064C115.62 9.704 115.708 10.416 115.708 11.2V18.64C115.196 18.752 114.484 18.88 113.572 19.024C112.66 19.184 111.556 19.264 110.26 19.264C109.444 19.264 108.7 19.192 108.028 19.048C107.372 18.904 106.804 18.672 106.324 18.352C105.844 18.016 105.476 17.584 105.22 17.056C104.964 16.528 104.836 15.88 104.836 15.112C104.836 14.376 104.98 13.752 105.268 13.24C105.572 12.728 105.972 12.32 106.468 12.016C106.964 11.712 107.532 11.496 108.172 11.368C108.812 11.224 109.476 11.152 110.164 11.152C110.628 11.152 111.036 11.176 111.388 11.224C111.756 11.256 112.052 11.304 112.276 11.368V11.032C112.276 10.424 112.092 9.936 111.724 9.568C111.356 9.2 110.716 9.016 109.804 9.016C109.196 9.016 108.596 9.064 108.004 9.16C107.412 9.24 106.9 9.36 106.468 9.52L106.012 6.64C106.22 6.576 106.476 6.512 106.78 6.448C107.1 6.368 107.444 6.304 107.812 6.256C108.18 6.192 108.564 6.144 108.964 6.112C109.38 6.064 109.796 6.04 110.212 6.04ZM119.941 6.808C120.549 6.632 121.333 6.472 122.293 6.328C123.253 6.168 124.261 6.088 125.317 6.088C126.389 6.088 127.277 6.232 127.981 6.52C128.701 6.792 129.269 7.184 129.685 7.696C130.101 8.208 130.397 8.816 130.573 9.52C130.749 10.224 130.837 11.008 130.837 11.872V19H127.261V12.304C127.261 11.152 127.109 10.336 126.805 9.856C126.501 9.376 125.933 9.136 125.101 9.136C124.845 9.136 124.573 9.152 124.285 9.184C123.997 9.2 123.741 9.224 123.517 9.256V19H119.941V6.808ZM134.474 12.688C134.474 11.776 134.618 10.92 134.906 10.12C135.21 9.304 135.642 8.6 136.202 8.008C136.762 7.4 137.442 6.92 138.242 6.568C139.042 6.216 139.954 6.04 140.978 6.04C141.65 6.04 142.266 6.104 142.826 6.232C143.386 6.344 143.93 6.512 144.458 6.736L143.714 9.592C143.378 9.464 143.01 9.352 142.61 9.256C142.21 9.16 141.762 9.112 141.266 9.112C140.21 9.112 139.418 9.44 138.89 10.096C138.378 10.752 138.122 11.616 138.122 12.688C138.122 13.824 138.362 14.704 138.842 15.328C139.338 15.952 140.194 16.264 141.41 16.264C141.842 16.264 142.306 16.224 142.802 16.144C143.298 16.064 143.754 15.936 144.17 15.76L144.674 18.688C144.258 18.864 143.738 19.016 143.114 19.144C142.49 19.272 141.802 19.336 141.05 19.336C139.898 19.336 138.906 19.168 138.074 18.832C137.242 18.48 136.554 18.008 136.01 17.416C135.482 16.824 135.09 16.128 134.834 15.328C134.594 14.512 134.474 13.632 134.474 12.688ZM146.865 12.784C146.865 11.664 147.033 10.688 147.369 9.856C147.721 9.008 148.177 8.304 148.737 7.744C149.297 7.184 149.937 6.76 150.657 6.472C151.393 6.184 152.145 6.04 152.913 6.04C154.705 6.04 156.121 6.592 157.161 7.696C158.201 8.784 158.721 10.392 158.721 12.52C158.721 12.728 158.713 12.96 158.697 13.216C158.681 13.456 158.665 13.672 158.649 13.864H150.537C150.617 14.6 150.961 15.184 151.569 15.616C152.177 16.048 152.993 16.264 154.017 16.264C154.673 16.264 155.313 16.208 155.937 16.096C156.577 15.968 157.097 15.816 157.497 15.64L157.977 18.544C157.785 18.64 157.529 18.736 157.209 18.832C156.889 18.928 156.529 19.008 156.129 19.072C155.745 19.152 155.329 19.216 154.881 19.264C154.433 19.312 153.985 19.336 153.537 19.336C152.401 19.336 151.409 19.168 150.561 18.832C149.729 18.496 149.033 18.04 148.473 17.464C147.929 16.872 147.521 16.176 147.249 15.376C146.993 14.576 146.865 13.712 146.865 12.784ZM155.265 11.416C155.249 11.112 155.193 10.816 155.097 10.528C155.017 10.24 154.881 9.984 154.689 9.76C154.513 9.536 154.281 9.352 153.993 9.208C153.721 9.064 153.377 8.992 152.961 8.992C152.561 8.992 152.217 9.064 151.929 9.208C151.641 9.336 151.401 9.512 151.209 9.736C151.017 9.96 150.865 10.224 150.753 10.528C150.657 10.816 150.585 11.112 150.537 11.416H155.265Z" fill="black"/>
</svg>
