<svg width="35" height="47" viewBox="0 0 35 47" fill="none" xmlns="http://www.w3.org/2000/svg">
<path d="M10.0648 23.7145V6.02441C10.0648 6.02441 4.58395 7.86025 4.24983 8.00549C2.99378 8.54929 1.92377 9.44239 1.16947 10.5766C0.415172 11.7109 0.00896027 13.0376 0 14.396V28.6991C0.0106561 30.0564 0.416882 31.3816 1.16983 32.5154C1.92277 33.6492 2.99033 34.5431 4.24396 35.0896C4.57809 35.2348 10.0648 37.0706 10.0648 37.0706V30.1573H7.4035L10.0648 23.7145Z" fill="#60AAFB"/>
<path d="M22.2635 12.0839V0C22.2635 0 16.7768 1.84161 16.4486 1.98104C15.1934 2.52604 14.1242 3.41949 13.3701 4.55346C12.616 5.68743 12.2092 7.01346 12.1987 8.37154V23.7959L14.819 30.1864H12.1987C12.1987 38.4999 12.1987 46.0232 12.1987 46.0232C12.1987 46.0232 17.6854 44.1816 18.0195 44.0364C19.2742 43.4908 20.343 42.5972 21.097 41.4634C21.8511 40.3295 22.2582 39.0038 22.2693 37.6459V18.6196H19.5905L22.2635 12.0839Z" fill="#355DFB"/>
<path d="M34.3738 14.4018C34.3649 13.0434 33.9586 11.7167 33.2043 10.5825C32.45 9.44825 31.3801 8.55511 30.124 8.01131C29.7899 7.86608 24.3091 6.03027 24.3091 6.03027V12.1361L26.9821 18.6254H24.3091V37.0881C24.3091 37.0881 29.7957 35.2523 30.1299 35.1071C31.3835 34.5606 32.451 33.6667 33.204 32.5329C33.9569 31.3991 34.3632 30.0738 34.3738 28.7166V14.4018Z" fill="#0000DE"/>
</svg>
