<svg width="483" height="397" viewBox="0 0 483 397" fill="none" xmlns="http://www.w3.org/2000/svg">
<path d="M86.4355 220.859C86.2804 220.604 72.4567 195.717 62.6894 178.963C62.4651 178.39 62.0255 177.927 61.4646 177.674C60.9036 177.421 60.2659 177.397 59.6878 177.608C41.5281 180.994 25.9024 183.835 2.37231 188.39C9.6616 205.701 3.64311 192.817 22.0239 232.331C22.2959 233.015 22.5678 233.559 23.5234 233.287C30.4849 231.922 37.4463 230.852 44.4026 229.475C55.8728 227.169 83.8405 221.54 86.4355 220.859Z" fill="#38A1FF"/>
<path d="M180.184 115.372C179.64 115.372 178.817 114.417 178.685 113.733C177.838 109.372 162.695 26.9479 162.309 25.578C161.73 23.5447 162.579 22.2739 164.764 22.0197C172.389 21.1327 282.122 9.31176 288.403 8.64586C289.765 8.50353 290.606 8.77549 290.995 10.2827C292.152 14.7711 310.626 92.4396 312.146 99.1215C312.248 99.5206 312.258 99.9374 312.176 100.341C312.094 100.744 311.922 101.124 311.673 101.452C311.423 101.78 311.103 102.047 310.737 102.234C310.37 102.421 309.965 102.523 309.554 102.532C304.094 102.952 182.095 115.507 180.184 115.372Z" fill="#191919"/>
<path d="M88.7532 243.784C88.1483 239.555 86.6259 236.347 90.3926 235.188C93.2824 234.296 93.2569 234.367 93.2569 229.457C92.9832 224.082 94.6815 218.792 98.0326 214.581C100.23 211.386 103.037 208.657 106.292 206.549C109.547 204.442 113.186 202.998 117.001 202.3C123.222 200.988 124.793 200.165 141.428 202.163C147.273 202.864 163.453 206.138 170.91 206.257C180.085 206.405 188.165 203.177 185.369 194.383C181.542 182.277 170.3 177.186 158.212 169.546C152.146 165.711 147.136 162.272 151.525 155.763C153.604 152.892 156.373 150.592 159.577 149.076C168.488 144.405 168.107 144.982 172.539 144.298C172.539 144.026 172.539 143.48 172.811 143.345C174.59 141.98 174.019 140.346 173.63 138.704C172.978 135.033 173.117 131.264 174.039 127.651C174.312 126.655 174.897 125.773 175.707 125.133C176.517 124.493 177.511 124.128 178.543 124.093C184.421 123.635 312.703 110.185 318.152 109.494C320.175 109.156 322.249 109.288 324.212 109.879C326.176 110.471 327.978 111.506 329.478 112.904C341.733 123.694 364.92 141.713 376.967 151.661C378.135 152.411 379.014 153.535 379.46 154.848C379.906 156.162 379.894 157.589 379.425 158.895C378.848 160.58 378.337 166.374 371.099 167.218C349.127 169.78 259.086 178.777 228.77 182.366C212.821 184.252 196.123 173.295 185.784 161.213C182.406 157.521 179.474 153.445 177.048 149.069C176.776 148.25 174.989 148.372 174.593 147.976C173.637 146.474 172.41 147.02 171.182 147.429C164.612 149.013 158.669 152.532 154.12 157.53C149.073 163.678 159.486 166.448 173.226 175.679C180.749 180.732 188.956 189.788 188.783 198.467C188.669 200.402 188.04 202.271 186.96 203.88C185.881 205.489 184.39 206.779 182.642 207.617C168.214 213.996 142.925 203.477 125.327 204.615C114.398 205.319 105.327 209.561 99.6719 219.357C97.319 223.257 96.1787 227.769 96.3958 232.319C96.3958 233.412 96.6678 234.23 98.0326 234.502C100.628 234.776 101.062 236.952 101.591 239.006C102.313 241.862 102.28 241.801 105.149 241.463C145.438 236.756 129.294 237.946 142.404 236.685C144.302 236.653 146.171 237.162 147.791 238.152C149.411 239.142 150.716 240.573 151.553 242.277C157.582 255.445 179.493 298.85 180.075 306.005C180.344 307.575 179.998 309.189 179.108 310.51C178.218 311.832 176.853 312.759 175.297 313.101C170.157 315.28 164.807 316.926 159.331 318.014C159.031 318.085 105.873 329.225 97.6488 330.023C95.1886 330.262 86.5954 330.706 83.0474 328.795C74.5686 326.144 68.2121 311.06 64.6259 302.871C48.9189 267.001 49.173 266.018 48.5224 258.794C48.3315 257.124 48.7714 255.442 49.7559 254.078C50.7404 252.715 52.1984 251.768 53.8445 251.424C62.1555 249.324 70.4817 247.556 78.8182 245.693C84.1479 244.498 88.2576 244.282 88.7532 243.784ZM55.865 269.304C55.6156 269.348 55.3795 269.448 55.1747 269.597C54.9699 269.746 54.8018 269.94 54.6834 270.164C54.565 270.388 54.4993 270.636 54.4913 270.889C54.4833 271.142 54.5333 271.394 54.6374 271.624C58.8895 281.227 77.4279 319.932 78.2463 321.023C79.2629 322.039 173.775 303.341 174.044 303.282C174.33 303.221 174.599 303.097 174.831 302.917C175.063 302.738 175.251 302.509 175.382 302.247C175.513 301.985 175.584 301.697 175.588 301.404C175.593 301.111 175.532 300.821 175.409 300.555C170.905 291.202 154.392 255.93 153.043 253.2C152.878 252.961 152.651 252.772 152.386 252.652C152.122 252.532 151.829 252.486 151.541 252.519C140.891 254.293 70.0573 266.711 55.865 269.304V269.304ZM180.731 148.804C183.558 154.118 187.144 158.991 191.375 163.271C204.5 175.725 219.368 180.147 224.126 179.792C228.49 179.459 359.916 165.241 369.462 164.1C371.026 164.024 372.517 163.414 373.685 162.371C374.853 161.327 375.627 159.914 375.877 158.368C376.096 157.544 376.084 156.675 375.843 155.857C375.603 155.039 375.142 154.302 374.512 153.728C358.612 140.575 342.676 127.163 326.885 113.88C326.101 113.118 325.151 112.549 324.109 112.217C323.067 111.886 321.962 111.801 320.882 111.969C311.354 113.375 193.157 125.963 179.641 127.392C174.982 127.882 176.194 129.133 177.32 140.491C177.442 141.721 178.139 142.128 179.353 142.128C180.664 142.108 181.95 142.49 183.039 143.221C184.056 144.302 184.804 145.608 185.222 147.033C185.768 148.126 185.222 148.812 183.994 148.812C182.91 148.946 181.814 148.943 180.731 148.804V148.804Z" fill="#191919"/>
<path d="M358.96 54.2342C357.732 50.1397 356.639 46.1825 355.275 42.3625C354.803 36.3307 355.217 30.2623 356.502 24.3502C358.535 23.3336 361.224 29.1513 364.828 32.9459C367.685 35.9551 368.102 39.7701 369.195 43.3181C369.741 45.0972 370.285 46.7289 370.832 48.503C370.906 48.5115 370.981 48.5036 371.052 48.4799C371.122 48.4562 371.187 48.4172 371.241 48.3657C370.969 46.5866 369.876 28.9886 369.876 22.4415C369.876 18.3749 372.949 14.1737 376.837 16.0265C380.566 17.8056 380.879 21.5341 381.476 25.715C384.343 25.4431 384.701 25.715 385.288 28.582C385.874 31.5558 385.874 34.6155 385.288 37.5894C385.006 38.7127 384.64 39.1753 383.923 38.817C383.649 35.2587 382.831 28.0355 382.693 28.0355C382.447 28.9777 382.266 29.9356 382.149 30.9024C382.559 37.3157 383.105 43.729 383.786 50.1423C383.786 50.5235 384.157 52.4831 385.288 51.9214C387.038 41.6979 389.363 31.5815 392.255 21.6205C392.941 18.9493 394.847 16.4484 397.577 17.3888C398.306 17.8655 398.877 18.5482 399.217 19.3501C399.558 20.1519 399.652 21.0369 399.488 21.8925C399.488 22.1644 399.351 22.3017 399.351 22.5762C400.035 22.8324 400.617 23.3032 401.01 23.9181C401.404 24.533 401.588 25.2589 401.534 25.987C401.603 29.1284 401.603 32.1249 401.534 35.2663C401.509 35.6006 401.362 35.9142 401.122 36.1482C400.882 36.3822 400.565 36.5205 400.23 36.5374C399.895 36.5542 399.565 36.4484 399.303 36.2396C399.041 36.0309 398.863 35.7337 398.804 35.4036C398.743 34.3934 398.607 33.3892 398.395 32.3994C391.225 68.2511 396.337 50.8539 404.945 32.8086C405.704 31.4764 406.621 30.24 407.675 29.1259C408.723 27.5636 409.914 26.1018 411.233 24.7594C411.433 24.4188 411.71 24.1299 412.042 23.9162C412.374 23.7025 412.751 23.57 413.144 23.5293C414.372 23.5293 414.527 24.3477 414.644 25.5778C414.972 28.9835 415.465 32.2647 415.874 35.6755C416.1 36.8142 415.714 37.3047 408.231 53.8251C407.677 55.0501 408.231 55.716 409.187 56.2828C410.292 56.9436 411.507 57.6476 412.598 58.1915C413.445 58.628 414.12 59.3363 414.516 60.2028C414.912 61.0694 415.005 62.0438 414.781 62.9697C413.708 69.8168 404.714 119.446 403.728 125.605C401.321 140.618 379.384 137.784 364.562 134.612C357.117 133.021 357.641 128.512 355.829 120.694C354.848 116.468 343.654 68.8077 341.774 62.0141C340.023 55.7414 352.537 53.8886 358.96 54.2342ZM410.554 64.4692C388.719 69.1102 367.157 69.5194 345.868 62.0141C351.78 91.5652 354.56 99.6118 361.7 126.825C362.584 130.202 364.724 129.77 365.929 130.383C382.371 132.162 388.765 134.195 396.088 130.792C397.114 130.423 398.022 129.785 398.718 128.945C399.414 128.105 399.872 127.094 400.045 126.016C410.066 72.3863 406.996 85.0434 410.539 64.4692H410.554ZM358.286 41.6788C359.364 48.3703 361.19 54.9195 363.73 61.2033C363.881 61.5326 364.117 61.8153 364.414 62.0217C366.869 62.4309 369.325 62.7028 371.919 62.9773C371.508 61.3278 365.177 41.1196 365.095 40.8655C363.868 37.7215 357.727 40.9976 358.271 41.6788H358.286ZM409.461 37.7215C408.78 37.8588 408.094 38.4205 407.415 38.268C406.866 38.146 406.46 37.3123 405.913 36.6312C402.228 45.2268 397.727 53.4057 394.451 62.4233C396.906 62.1488 398.954 61.8768 401 61.6049C401.994 61.6049 402.116 61.0051 410.689 40.9976C411.141 40.0649 410.206 38.9898 409.446 37.7215H409.461ZM389.675 35.8128C387.764 45.2167 386.117 53.9623 384.216 63.1044C386.127 62.9697 387.355 62.8325 388.719 62.8325C390.981 62.8325 389.695 62.8909 395.541 37.3123C393.48 36.7684 391.569 36.3567 389.66 35.8128H389.675ZM381.486 63.1044C380.624 51.0522 380.032 45.4683 379.707 39.9047C379.534 36.9057 379.16 36.3465 376.022 36.6312C375.191 36.8131 374.372 37.0405 373.566 37.3123C374.385 45.9105 375.203 54.5087 375.887 63.1044H381.486ZM379.031 33.3678C378.484 29.1386 377.963 24.6298 377.12 20.2684C376.591 17.5362 373.844 18.9036 373.434 19.5847C372.891 20.3392 372.605 21.2477 372.616 22.1771C372.834 31.3421 373.434 32.2063 373.434 34.5954C375.33 34.1735 376.967 33.7541 379.016 33.3551L379.031 33.3678ZM362.244 35.6882C359.651 31.731 359.651 31.731 357.877 32.2774C357.059 38.4179 356.512 37.4623 358.286 37.4623C359.729 37.2043 361.084 36.5901 362.228 35.6755L362.244 35.6882ZM408.643 34.3234C410.554 33.2331 410.554 33.2331 412.455 35.9602H412.865C412.731 34.1862 412.594 32.4121 412.455 30.6381C411.741 30.3689 411.012 30.1415 410.272 29.957C407.672 32.8086 407.672 32.8086 408.628 34.3107L408.643 34.3234Z" fill="#191919"/>
<path d="M16.2898 375.474C14.9773 375.66 13.6451 375.66 12.3326 375.474C12.0858 375.418 11.8569 375.301 11.6665 375.134C11.4762 374.967 11.3304 374.755 11.2422 374.518C11.105 374.246 11.6514 373.7 11.9234 373.291C12.3996 372.806 12.9767 372.433 13.6137 372.197C14.2507 371.961 14.9318 371.868 15.6087 371.926C39.5403 367.437 428.221 296.44 471.537 288C475.548 287.217 477.988 291.106 474.813 291.812C471.995 292.455 16.544 375.428 16.2898 375.474Z" fill="#191919"/>
<path d="M480.408 303.148C480.882 302.964 481.407 302.96 481.884 303.136C482.362 303.312 482.758 303.656 483 304.104C482.728 305.603 481.501 305.883 480.273 306.287C325.49 343.366 33.9694 396.9 19.9753 396.9C19.9753 391.062 112.243 383.732 480.408 303.148Z" fill="#191919"/>
<path d="M83.8403 159.586C80.0279 162.862 69.2515 161.202 65.4188 158.767C62.7904 157.097 60.6413 154.772 59.1821 152.021C57.7229 149.269 57.0037 146.186 57.0951 143.073C56.7011 129.882 67.8994 125.505 74.9701 131.473C75.5165 131.882 76.063 132.429 76.4722 131.473C77.5582 129.385 79.1513 127.604 81.1054 126.293C83.0594 124.981 85.3116 124.182 87.6552 123.968C101.405 121.594 108.379 120.168 129.004 124.105C135.155 125.279 138.408 130.517 137.875 137.204C137.007 146.853 133.192 156.001 126.946 163.406C124.722 166.195 121.498 168.008 117.959 168.458C111.683 169.424 105.317 169.653 98.9881 169.14C91.2363 168.494 86.4301 161.804 83.8403 159.586ZM78.3835 135.296C77.9517 140.203 78.7975 145.139 80.8386 149.623C83.539 155.082 87.4062 159.881 92.1665 163.68C93.892 165.253 96.1145 166.17 98.4468 166.273C105.883 166.849 113.363 166.436 120.691 165.045C121.433 164.827 122.097 164.4 122.602 163.815C129.922 156.264 135.846 144.738 135.429 133.931C135.193 127.811 128.798 125.953 122.739 125.061C109.228 123.068 79.7 121.729 78.3835 135.296V135.296ZM100.899 125.605C123.161 123.317 137.43 130.24 131.604 132.838C121.225 137.466 103.901 140.135 84.1148 135.021C82.0637 134.493 78.6452 131.717 83.1591 129.153C86.2904 127.368 97.0769 125.996 100.899 125.605V125.605ZM75.2446 136.386C75.4125 135.545 75.2669 134.672 74.8354 133.931C73.9624 132.86 72.82 132.04 71.5256 131.556C70.2311 131.072 68.8311 130.942 67.4696 131.178C66.108 131.414 64.8338 132.009 63.7779 132.9C62.7221 133.792 61.9226 134.949 61.4615 136.251C60.5887 138.282 60.1529 140.474 60.1823 142.684C60.2118 144.894 60.7059 147.073 61.6326 149.08C62.5593 151.087 63.8977 152.876 65.5611 154.332C67.2244 155.788 69.1754 156.877 71.2873 157.53C74.897 158.965 78.8821 159.156 82.6127 158.073C81.9315 157.118 81.2478 156.294 80.7014 155.481C72.7437 158.312 57.3645 143.5 67.3301 136.513C68.4484 135.617 69.8329 135.119 71.2656 135.096C72.6983 135.073 74.0981 135.527 75.2446 136.386V136.386ZM80.0202 154.536C77.2196 150.068 75.6647 144.933 75.5165 139.662C75.2971 139.116 74.9579 138.626 74.5239 138.229C74.0899 137.831 73.5721 137.536 73.0089 137.365C72.4457 137.195 71.8513 137.152 71.2696 137.242C70.6879 137.332 70.1337 137.551 69.648 137.883C62.102 142.072 71.4678 154.536 80.0202 154.536V154.536ZM99.3973 129.974C95.585 128.062 88.7532 128.743 86.5699 132.157C90.9364 131.351 94.8886 130.655 99.3973 129.974Z" fill="#191919"/>
<path d="M171.589 121.922C172.135 127.653 169.151 122.738 168.996 121.785C168.145 116.582 152.034 32.5419 151.391 28.0331C150.772 25.1549 151.055 22.1558 152.203 19.4449C153.351 16.734 155.308 14.4433 157.806 12.8852C159.253 12.1434 160.826 11.6804 162.444 11.5204C165.985 10.9282 280.354 0.248391 285.264 0.0577714C300.58 -0.536961 299.159 1.49632 321.426 105.409C321.426 108.276 319.273 107.313 318.971 106.09C318.597 104.581 317.98 103.099 317.606 101.589C297.817 21.58 298.076 11.3475 296.318 8.10954C295.628 6.50642 294.455 5.15833 292.963 4.2531C291.471 3.34787 289.734 2.93059 287.994 3.05939C283.899 3.33897 162.025 14.4966 159.989 15.7521C155.226 18.6673 155.16 22.833 154.53 26.6682C154.667 26.8055 170.224 114.008 171.589 121.922Z" fill="#191919"/>
<path d="M74.1516 226.043C71.0255 226.656 59.4104 229.159 56.6858 229.729C52.4388 230.616 42.1326 232.13 24.4787 236.006C23.7894 236.213 23.0651 236.278 22.3499 236.197C21.6348 236.115 20.9436 235.89 20.3183 235.533C19.693 235.177 19.1466 234.697 18.7123 234.123C18.278 233.549 17.9648 232.893 17.7918 232.194C-0.792318 188.051 -0.167086 189.365 0.188737 186.877C0.188737 186.033 -0.535613 186.417 49.7244 176.78C53.2826 176.101 56.8281 175.448 60.3686 174.596C62.0104 174.202 62.8263 175.143 63.5074 176.375C80.4344 206.844 73.5061 195.691 86.1607 216.222C87.2535 218.002 88.0948 219.755 89.1623 221.41C89.8612 222.49 89.297 223.308 88.2092 223.593C87.2637 223.835 78.114 225.268 74.1516 226.043ZM86.4351 220.858C86.2801 220.604 72.4564 195.717 62.689 178.963C62.4648 178.39 62.0251 177.927 61.4642 177.674C60.9033 177.421 60.2656 177.397 59.6874 177.608C41.5277 180.993 25.902 183.835 2.37197 188.39C9.66125 205.7 3.64276 192.817 22.0236 232.331C22.2955 233.015 22.5675 233.559 23.5231 233.287C30.4845 231.922 37.4459 230.852 44.4023 229.474C55.8725 227.169 83.8402 221.54 86.4351 220.858Z" fill="#191919"/>
<path d="M8.24065 109.494C5.30512 110.081 3.9047 106.141 6.87582 105.399C10.6882 104.942 152.291 92.5387 156.85 92.1626C158.759 92.005 159.443 92.2973 159.58 93.6621C159.717 95.0269 159.305 95.7106 157.801 95.7106C152.69 95.7208 9.04634 109.494 8.24065 109.494Z" fill="#191919"/>
<path d="M433.464 181.146C425.695 179.029 430.051 181.128 409.993 173.641C404.704 171.415 399.744 168.477 395.252 164.908C394.303 164.255 393.237 163.791 392.113 163.543C391.284 163.429 390.502 163.089 389.853 162.562C389.203 162.034 388.711 161.338 388.429 160.55C388.148 159.762 388.088 158.912 388.256 158.092C388.424 157.272 388.814 156.514 389.383 155.901C392.548 152.138 396.641 149.269 401.257 147.577C409.2 144.23 417.086 145.396 424.864 148.123C436.476 152.19 450.841 156.419 454.346 167.775C454.891 169.861 454.762 172.066 453.978 174.075C453.194 176.084 451.794 177.793 449.98 178.958C440.306 184.288 437.714 182.305 433.464 181.146ZM398.802 165.454C407.361 170.801 416.711 174.761 426.506 177.189C424.912 175.598 428.3 177.611 399.758 165.18C398.645 164.44 398.134 165.119 398.802 165.454V165.454ZM407.535 147.714C402.053 148.985 394.319 152.401 391.16 156.993C389.762 159.027 390.336 160.425 392.799 161.088C405.515 164.382 417.693 169.482 428.961 176.233C435.223 179.392 440.172 182.064 448.34 175.28C452.153 172.118 452.3 169.409 449.703 165.18C447.616 161.622 444.467 158.807 440.698 157.131C434.288 154.391 427.736 151.943 421.046 149.623C416.701 148.15 412.118 147.503 407.535 147.714V147.714Z" fill="#191919"/>
<path d="M385.565 214.855C385.837 209.668 389.779 207.647 394.298 210.214C394.552 210.364 429.42 229.584 456.664 245.288C459.078 247.937 461.226 250.817 463.076 253.886C463.704 254.837 463.396 255.92 461.849 255.92C449.751 254.575 460.484 258.837 389.113 218.812C387.886 217.719 386.112 216.629 385.565 214.855ZM454.89 246.65L403.438 217.448C403.025 217.098 402.541 216.843 402.02 216.7C401.498 216.558 400.952 216.531 400.419 216.622C399.886 216.713 399.38 216.92 398.935 217.227C398.491 217.535 398.119 217.936 397.846 218.403C396.728 219.745 396.761 220.436 398.255 221.268C421.796 234.308 451.138 251.426 451.751 251.426C452.706 249.927 453.662 248.287 454.89 246.65V246.65ZM459.256 251.289L457.21 248.015C454.615 249.106 453.525 250.47 453.652 252.654C455.571 252.382 457.754 253.747 459.256 251.289ZM389.108 216.083C390.199 214.443 391.154 212.944 392.247 211.304C391.919 211.123 391.556 211.01 391.183 210.974C390.809 210.937 390.432 210.978 390.074 211.093C389.717 211.209 389.387 211.396 389.105 211.644C388.823 211.892 388.595 212.195 388.435 212.535C387.476 214.171 387.886 215.536 389.113 216.083H389.108ZM394.293 219.356C395.658 217.577 396.885 216.217 398.105 214.718C397.142 214.654 396.188 214.934 395.412 215.509C394.637 216.084 394.092 216.916 393.874 217.857C393.889 218.274 394.288 218.947 394.288 219.356H394.293ZM391.563 217.991C392.793 215.958 393.747 214.433 394.568 212.807C392.519 213.216 391.154 214.309 391.009 216.083C391.085 216.746 391.274 217.392 391.568 217.991H391.563Z" fill="#191919"/>
<path d="M132.832 161.632C141.123 163.075 138.762 180.315 109.77 182.102C98.518 182.796 73.8417 178.381 78.109 169.549C78.4664 168.503 79.122 167.585 79.995 166.908C80.868 166.23 81.9203 165.823 83.0219 165.737C82.8142 166.149 82.4792 166.484 82.0663 166.692C81.3724 167.058 80.796 167.613 80.4032 168.292C80.0104 168.971 79.8173 169.747 79.846 170.531C79.8746 171.315 80.124 172.075 80.5653 172.724C81.0066 173.372 81.622 173.883 82.3408 174.197C94.6268 181.665 119.878 182.473 132.56 172.164C133.254 171.651 133.836 171.002 134.27 170.255C134.704 169.509 134.98 168.682 135.082 167.825C135.184 166.968 135.11 166.099 134.864 165.272C134.618 164.444 134.205 163.676 133.65 163.014C133.241 162.725 133.104 162.178 132.832 161.632Z" fill="#191919"/>
<path d="M418.863 70.8842C416.881 70.8842 416.502 69.2068 417.907 68.1546C420.223 65.6587 449.858 63.7881 450.114 63.7881C450.802 63.7338 451.483 63.9549 452.008 64.4027C452.532 64.8505 452.857 65.4884 452.912 66.1759C452.966 66.8635 452.745 67.5444 452.297 68.069C451.849 68.5935 451.211 68.9187 450.524 68.9729C440.015 70.2148 429.444 70.8529 418.863 70.8842V70.8842Z" fill="#191919"/>
<path d="M328.113 75.5228C338.787 74.3054 340.551 74.1224 342.033 74.9764C342.313 75.1055 342.548 75.3153 342.708 75.5789C342.868 75.8426 342.946 76.148 342.931 76.4561C342.917 76.7642 342.81 77.0608 342.626 77.308C342.441 77.5551 342.187 77.7415 341.896 77.8433C339.994 78.5354 338.028 79.0386 336.027 79.3454C331.257 79.935 326.339 80.301 321.426 80.5729C319.38 80.8449 315.684 76.941 328.113 75.5228Z" fill="#191919"/>
<path d="M369.325 200.389C368.372 199.161 367.292 197.659 365.233 198.477C364.824 198.615 360.689 198.912 359.641 197.113C357.677 193.758 350.164 191.775 347.223 191.521C319.327 188.532 306.728 194.22 292.912 202.028C290.251 203.169 292.182 202.59 283.63 199.573C267.14 193.389 239.264 194.774 212.669 211.719C209.233 213.837 206.3 216.677 204.073 220.043C202.35 222.623 201.046 222.175 197.249 223.855C196.84 223.948 196.461 224.141 196.145 224.416C195.829 224.691 195.586 225.04 195.437 225.431C195.289 225.823 195.239 226.245 195.293 226.661C195.347 227.076 195.503 227.472 195.747 227.813C197.93 231.498 237.505 297.821 241.053 303.961C242.146 305.872 242.964 306.282 245.01 305.872C252.518 304.233 315.756 291.955 329.757 288.951C331.978 288.349 334.283 288.118 336.579 288.267C341.328 288.838 346.115 287.564 349.953 284.709C351.03 283.919 352.306 283.446 353.638 283.344C360.051 282.525 409.18 275.292 414.227 274.611C429.207 273.048 434.372 284.772 369.325 200.389ZM248.419 299.463C247.402 298.446 204.51 227.663 204.34 227.408C205.532 226.216 201.798 221.182 247.735 297.007C249.202 299.45 249.214 298.667 248.419 299.463ZM269.979 292.638C286.827 285.183 304.929 280.97 323.337 280.22L269.979 292.638ZM275.438 287.726C287.31 281.722 299.728 277.902 312.421 278.446C299.789 280.167 287.386 283.279 275.438 287.726V287.726ZM251.83 298.098C236.272 272.716 220.715 247.379 205.158 222.086C228.444 202.262 259.533 194.716 285.811 204.074C289.055 205.197 291.806 207.417 293.588 210.352C316.071 244.811 336.017 274.423 338.757 278.993C306.143 268.895 277.759 277.765 251.83 298.098V298.098ZM342.033 278.446C326.067 254.428 309.963 230.138 293.725 205.848C309.023 193.186 341.169 191.76 357.181 197.659C358.393 197.964 408.374 263.191 409.446 264.8C397.923 262.331 385.968 262.753 374.647 266.028C363.255 268.642 352.279 272.821 342.033 278.446V278.446ZM399.074 266.712C389.67 268.076 379.697 269.304 369.871 270.669C382.973 267.121 395.254 265.619 399.074 266.712V266.712ZM356.772 276.809C356.663 276.649 356.614 276.456 356.635 276.263C359.774 275.445 363.05 274.484 366.46 273.942C373.338 272.898 400.472 268.806 407.535 268.486C408.459 268.497 409.378 268.634 410.265 268.895C392.255 271.625 374.512 274.217 356.772 276.809Z" fill="#191919"/>
<path d="M389.113 216.083C386.318 214.838 388.664 209.579 392.115 211.305C391.159 212.936 390.069 214.444 389.113 216.083Z" fill="#38A1FF"/>
<path d="M148.936 303.557C148.661 305.057 147.84 305.768 146.478 305.603C140.045 304.823 148.455 308.526 120.96 292.229C113.79 287.98 84.3867 272.133 84.3867 266.712C85.0552 266.043 92.7384 267.22 93.9406 267.939C154.761 304.675 144.569 298.1 148.936 303.557ZM120.414 289.637C121.103 290.325 133.79 297.879 142.93 303.282C143.878 303.844 144.295 303.42 144.841 302.739C145.387 301.918 144.841 301.514 144.16 301.099C141.593 299.541 126.28 290.17 121.369 287.316C121.099 288.109 120.78 288.884 120.414 289.637V289.637Z" fill="#191919"/>
<path d="M321.016 117.146C323.512 117.53 321.779 116.547 359.364 148.942C360.782 149.887 359.743 150.853 358.817 150.853C353.633 151.397 230.131 165.465 224.537 166.273C223.663 166.416 222.765 166.313 221.946 165.976C221.126 165.638 220.417 165.079 219.896 164.362C193.21 131.999 192.356 132.083 192.74 130.927C193.815 128.777 320.716 117.098 321.016 117.146ZM217.85 140.618C216.211 140.89 214.984 141.162 213.619 141.299C212.391 141.574 213.481 141.983 214.302 141.983C219.159 140.633 221.238 143.831 226.855 150.853C224.947 151.125 223.445 151.262 221.942 151.534C220.578 152.081 221.808 151.943 221.942 152.081C223.258 152.226 224.585 152.226 225.9 152.081C226.58 151.921 227.292 151.965 227.948 152.208C228.603 152.451 229.173 152.881 229.585 153.445C230.884 154.744 232.251 155.973 233.679 157.128C234.089 157.403 234.498 157.675 234.089 156.719C232.724 155.219 231.496 153.717 229.994 152.218C229.966 152.185 229.947 152.145 229.939 152.102C229.931 152.059 229.933 152.015 229.947 151.973C229.961 151.932 229.985 151.895 230.017 151.866C230.05 151.836 230.089 151.816 230.131 151.806C232.315 151.534 241.594 150.307 246.37 149.897C247.059 149.99 247.691 150.33 248.149 150.853C251.664 154.368 256.414 159.876 254.973 156.993C253.062 154.673 251.161 152.218 249.104 149.897C249.651 149.623 253.479 149.27 263.98 148.118C268.759 147.61 270.289 146.997 271.758 148.665C273.283 150.408 274.897 152.076 276.399 153.85C277.08 154.94 277.626 154.396 276.808 153.44C275.443 151.392 273.941 149.483 272.441 147.3C278.307 146.616 284.041 145.935 289.907 145.251C291.94 145.251 294.309 149.732 297.003 151.529L297.412 151.12C295.913 149.209 294.548 147.307 293.046 145.389C292.662 144.626 292.563 145.104 309.012 142.931C310.926 142.677 312.151 142.387 313.516 144.296C315.974 148.665 317.074 149.346 316.108 146.891C315.699 146.207 314.744 144.296 314.2 143.205C314.16 143.135 314.14 143.055 314.142 142.974C314.143 142.894 314.165 142.815 314.207 142.745C314.248 142.676 314.307 142.619 314.378 142.58C314.449 142.54 314.528 142.52 314.609 142.522C316.792 142.25 322.254 141.182 327.162 140.613C331.668 140.089 333.043 139.238 334.667 141.022C335.905 142.379 337.262 143.615 338.627 144.979C339.58 146.07 339.989 145.798 339.171 144.57L335.358 139.929C335.293 139.879 335.245 139.808 335.224 139.728C335.202 139.648 335.206 139.563 335.237 139.486C335.268 139.409 335.323 139.344 335.394 139.301C335.465 139.258 335.548 139.24 335.63 139.248L340.271 138.02C341.362 137.746 340.818 137.474 340.134 137.474C333.752 138.054 334.26 139.207 330.855 135.154C329.36 133.374 324.031 128.876 323.212 128.057C323.653 127.802 324.109 127.574 324.577 127.374C325.533 127.102 325.533 126.693 324.168 126.965C323.396 127.128 322.595 127.082 321.847 126.83C321.575 126.693 319.529 124.237 318.846 123.416C318.027 122.735 318.027 123.145 318.437 123.691L320.216 126.555C320.255 126.626 320.275 126.706 320.274 126.786C320.272 126.867 320.25 126.946 320.208 127.015C320.167 127.085 320.108 127.142 320.037 127.181C319.967 127.22 319.887 127.24 319.806 127.239C314.075 127.92 308.479 128.604 302.885 129.148C301.062 129.148 300.343 127.915 298.381 126.283C297.834 125.328 297.425 125.737 298.109 126.555C298.79 127.511 299.336 128.467 300.02 129.422C300.292 129.969 300.155 130.103 299.883 130.103C297.29 130.65 292.103 130.774 288.954 131.196C281.037 132.259 280.61 132.442 277.491 128.739C276.783 127.944 276.007 127.214 275.171 126.555C274.762 126.011 274.49 126.421 274.762 126.965C275.992 128.467 277.491 130.378 278.856 132.015C278.884 132.048 278.902 132.088 278.91 132.13C278.918 132.173 278.915 132.216 278.901 132.257C278.888 132.298 278.864 132.335 278.832 132.364C278.8 132.393 278.761 132.414 278.719 132.424C276.673 132.561 268.215 132.975 264.527 133.651C261.528 134.203 260.969 134.061 258.661 131.334C258.054 130.454 257.368 129.632 256.612 128.876C255.657 127.648 255.931 128.604 256.203 129.285C257.159 130.65 258.114 132.152 259.07 133.651C259.099 133.714 259.114 133.782 259.116 133.851C259.117 133.92 259.105 133.988 259.079 134.052C259.054 134.116 259.015 134.174 258.967 134.223C258.918 134.272 258.86 134.31 258.796 134.335C252.518 135.291 246.405 136.267 240.242 137.2C237.987 137.543 238.77 136.691 235.192 133.108L234.783 133.517C235.603 134.882 236.562 136.109 237.649 137.609C232.327 138.564 227.14 139.238 221.955 140.338C221.192 140.562 220.374 140.505 219.648 140.179C218.923 139.853 218.338 139.279 217.998 138.559C214.587 134.33 214.041 134.602 214.587 135.286C215.496 137.167 216.589 138.953 217.85 140.618Z" fill="#38A1FF"/>
<path d="M219.488 174.734C219.233 174.48 217.058 172.815 219.76 172.141C225.351 171.458 365.095 155.491 371.099 154.81C372.275 154.81 373.096 156.256 371.236 156.719C356.853 158.577 222.377 174.154 219.488 174.734Z" fill="#191919"/>
<path d="M179.366 130.383C216.705 172.319 217.587 171.137 215.94 172.551C214.984 173.369 214.31 172.406 213.756 171.732C206.622 163.04 177.32 131.478 177.32 130.927C177.32 130.518 177.31 128.07 179.366 130.383Z" fill="#191919"/>
<path d="M238.318 224.816C236.737 225.627 235.213 226.537 234.76 225.362C234.216 223.184 245.73 218.175 246.906 217.72C257.622 213.518 269.124 211.702 280.613 212.398C282.594 212.614 284.556 212.979 286.482 213.491C292.37 216.426 264.25 211.528 238.318 224.816Z" fill="#191919"/>
<path d="M287.585 222.633C290.858 223.997 287.719 224.412 287.173 224.412C280.541 224.45 273.939 225.321 267.524 227.004C267.115 227.141 263.839 226.732 266.977 225.225C279.154 221.324 281.843 221.308 287.585 222.633Z" fill="#191919"/>
<path d="M343.398 251.154C341.761 248.562 340.122 246.104 338.485 243.649C338.246 243.493 337.977 243.387 337.696 243.34C337.414 243.293 337.125 243.305 336.848 243.375C335.473 243.753 333.982 244.193 332.479 244.467C333.3 242.556 335.209 242.147 336.848 241.054C335.618 239.008 334.528 236.962 333.29 234.779C328.37 236.558 328.665 236.467 327.284 236.006C328.113 234.764 326.657 235.244 332.335 232.868C330.695 230.001 329.196 227.276 327.556 224.407C326.466 224.816 325.373 225.225 324.146 225.634C324.146 223.726 325.782 223.601 326.603 222.77C325.373 220.177 324.146 217.582 322.918 214.853C323.055 214.718 322.984 212.621 325.101 215.536C328.659 220.432 328.985 221.814 330.014 221.814C334.518 220.859 338.884 219.766 343.388 218.675C338.747 210.214 338.066 207.347 345.025 217.311C345.182 217.772 345.51 218.157 345.941 218.385C346.373 218.613 346.875 218.668 347.345 218.538C350.616 218.22 353.895 218.129 357.443 217.992C356.988 217.169 356.622 216.3 356.353 215.399C352.794 204.346 358.261 214.581 358.261 214.718C360.772 222.251 366.854 215.897 369.444 220.721C367.261 220.587 364.941 220.449 362.211 220.312C363.713 222.633 364.941 224.679 366.305 226.727C366.626 227.365 373.315 226.775 375.313 228.76C372.992 229.988 370.672 228.76 368.08 229.579C369.172 231.358 370.263 233.137 371.493 234.901C371.628 235.175 372.311 235.175 372.855 235.175C374.904 235.31 376.815 235.31 378.861 235.447C379.425 235.567 379.975 235.75 380.498 235.994C380.498 236.985 381.306 236.202 373.127 237.493C374.355 239.542 375.448 241.588 376.812 243.499C377.522 244.211 379.862 243.718 385.408 244.046C385.944 244.046 388.458 244.94 387.729 245.682C384.727 245.954 381.723 246.229 378.579 246.501C378.813 247.526 379.132 248.53 379.532 249.502C383.09 259.328 382.945 259.737 377.753 250.732C376.736 249.373 375.847 247.047 374.479 247.047C370.921 247.594 367.518 248.14 363.835 248.684C364.791 251.004 366.565 255.645 367.109 257.419C368.339 260.693 366.29 257.691 366.156 257.554C362.694 252.654 361.685 249.64 360.15 249.64C356.055 250.458 352.098 251.419 348.004 252.232C349.234 254.415 350.324 256.464 351.417 258.51C352.372 260.012 351.28 259.737 350.733 258.919C349.915 257.963 348.954 257.14 348.141 256.189C347.19 255.094 346.362 253.325 345.276 253.05C343.835 252.573 342.27 253.932 337.634 254.962C338.485 252.928 341.078 252.519 343.398 251.154ZM334.8 231.912C339.166 230.822 343.398 229.592 347.627 228.501C346.537 226.043 345.309 223.726 344.069 220.996C339.565 221.814 334.919 222.775 330.014 223.726C331.798 226.59 333.29 229.32 334.8 231.912ZM340.531 242.147C342.31 244.877 343.945 247.469 345.581 249.927C345.691 250.067 345.843 250.169 346.015 250.218C346.187 250.267 346.369 250.26 346.537 250.199C350.494 249.106 354.589 248.016 358.681 246.788C357.318 244.467 355.954 242.284 354.589 240.101C354.49 239.944 354.345 239.821 354.175 239.748C354.004 239.674 353.815 239.655 353.633 239.692C349.401 240.51 345.172 241.329 340.531 242.147V242.147ZM352.815 237.371C351.722 235.46 350.494 233.559 349.401 231.64C348.913 230.662 346.949 231.749 335.893 233.823C337.12 236.006 338.076 237.636 339.166 239.415C339.441 239.689 339.987 240.098 340.396 239.961C344.488 239.145 348.583 238.327 352.815 237.371V237.371ZM357.044 239.008C360.534 244.719 361.25 246.379 362.094 246.379C365.652 245.832 369.19 245.149 372.873 244.467C371.645 242.419 370.555 240.51 369.315 238.599C368.931 237.811 367.917 237.885 357.044 239.008V239.008ZM346.537 220.721C350.581 228.135 349.366 228.194 354.18 227.683C356.772 227.406 359.364 227.136 362.094 226.862C361.001 224.816 359.941 222.884 358.818 221.131C358.685 220.913 358.506 220.728 358.294 220.586C358.082 220.445 357.842 220.352 357.59 220.312C354.04 220.381 350.494 220.587 346.537 220.721V220.721ZM351.859 230.547C353.087 232.73 354.18 234.504 355.417 236.278C355.547 236.445 355.712 236.581 355.901 236.675C356.089 236.77 356.297 236.821 356.508 236.825C360.193 236.416 363.741 235.869 367.561 235.46C362.635 228.087 366.511 229.5 351.859 230.547V230.547Z" fill="#191919"/>
<path d="M319.38 207.894C318.97 206.666 319.926 205.983 320.882 205.711C334.751 200.602 348.949 201.573 351.584 204.209C352.771 205.396 351.462 206.112 350.631 205.848C340.716 202.691 329.236 205.431 319.38 207.894Z" fill="#191919"/>
<path d="M42.0819 182.786C46.4292 182.826 50.6676 184.151 54.2638 186.594C57.86 189.037 60.6534 192.489 62.2925 196.515C63.9317 200.542 64.3434 204.963 63.4759 209.223C62.6084 213.484 60.5004 217.392 57.4171 220.457C54.3338 223.522 50.4129 225.607 46.1478 226.449C41.8826 227.291 37.4636 226.853 33.4468 225.19C29.43 223.526 25.9948 220.713 23.5732 217.102C21.1517 213.491 19.8521 209.245 19.8379 204.898C19.8668 199.019 22.2238 193.392 26.3929 189.247C30.562 185.103 36.2034 182.78 42.0819 182.786V182.786ZM38.8083 201.482C38.8083 201.344 34.3046 192.474 31.9842 187.699C29.8009 189.745 27.8897 191.511 25.7064 193.43C30.2101 196.294 38.6711 201.482 38.8083 201.482ZM24.888 214.716C27.0713 217.036 28.9825 218.945 31.0285 221.128C33.8954 216.49 39.3548 207.62 39.3548 207.482C38.9735 207.876 29.7018 212.311 24.888 214.716ZM23.9324 212.937C28.9825 210.344 38.1246 205.566 38.1246 205.431C32.9398 205.157 27.755 205.022 22.1584 204.748C22.7073 207.622 23.2512 210.077 23.9324 212.937ZM59.413 214.436C60.234 211.709 61.0524 209.251 61.8707 206.659C56.2792 206.387 45.9045 205.975 45.7672 206.112C50.2709 208.85 54.6374 211.579 59.413 214.444V214.436ZM44.1304 185.233C43.8559 190.825 43.4467 201.2 43.584 201.2C46.3137 196.833 49.0433 192.467 52.045 187.691C49.3153 186.88 46.8525 186.059 44.1304 185.233ZM40.9916 200.79C41.1288 200.79 41.6727 190.555 41.9472 185.099C39.2175 185.642 36.6251 186.326 33.8954 186.878C36.3506 191.791 38.6711 196.294 40.9916 200.798V200.79ZM58.1854 216.347C53.6817 213.483 45.0861 208.296 44.9488 208.433C47.2693 212.799 49.5872 217.166 51.9077 221.807C54.0909 220.053 56.0022 218.274 58.1854 216.355V216.347ZM37.3063 203.657C37.3063 203.52 29.1198 198.066 24.6161 195.196C23.7977 197.789 22.9768 200.244 22.1584 202.839C27.6177 203.118 32.5306 203.39 37.3063 203.665V203.657ZM60.3687 197.105C55.593 199.425 51.0893 201.609 46.7229 203.792C46.7229 203.929 56.6859 204.476 62.008 204.748C61.4616 202.026 60.9151 199.57 60.3687 197.113V197.105ZM49.999 222.762C47.5413 218.121 42.9028 209.523 42.9028 209.523C42.7656 214.301 42.4911 219.214 42.3564 224.399C44.9488 223.865 47.2693 223.314 49.999 222.77V222.762ZM53.9689 189.063C51.2393 193.43 48.6468 197.387 45.9172 201.344C46.0519 201.482 54.6501 197.113 59.291 194.795C57.367 192.883 55.7303 190.972 53.9689 189.063ZM39.9114 224.27C40.3206 219.222 40.7298 209.668 40.5951 209.668C38.0027 213.625 35.5449 217.72 32.6806 222.086C35.2603 222.905 37.4486 223.588 39.8987 224.27H39.9114Z" fill="#191919"/>
<path d="M402.622 151.397C404.671 151.397 406.582 151.262 408.491 151.397C409.584 151.534 412.303 154.673 413.132 155.354C411.352 155.082 407.4 154.401 407.126 154.264C405.761 153.446 404.396 152.49 402.622 151.397Z" fill="#191919"/>
<path d="M269.57 145.94C267.114 146.212 265.069 146.502 263.02 146.759C258.384 147.341 253.741 147.714 249.1 148.258C248.553 148.258 247.735 148.258 247.463 147.849C245.005 144.984 242.55 141.983 239.82 138.699C242.687 138.29 255.118 136.595 258.654 135.969C259.279 135.802 259.942 135.83 260.551 136.049C261.161 136.268 261.689 136.669 262.064 137.197C264.23 139.95 266.84 142.801 269.57 145.94Z" fill="#38A1FF"/>
<path d="M330.842 137.888C330.908 137.939 330.955 138.01 330.977 138.09C330.999 138.169 330.994 138.254 330.963 138.331C330.933 138.409 330.878 138.473 330.807 138.516C330.736 138.559 330.653 138.578 330.57 138.569C328.717 138.788 321.042 139.982 313.102 140.618C310.858 140.618 312.446 140.806 303.551 131.468C303.485 131.418 303.438 131.347 303.416 131.267C303.394 131.187 303.399 131.102 303.429 131.025C303.46 130.948 303.515 130.883 303.586 130.84C303.657 130.797 303.74 130.778 303.823 130.787C321.105 128.403 321.105 127.882 321.7 128.467C324.839 131.605 327.805 134.782 330.842 137.888Z" fill="#38A1FF"/>
<path d="M282.125 133.247C288.426 132.459 296.556 131.702 299.728 131.201C300.354 131.081 301.001 131.132 301.602 131.348C302.202 131.564 302.733 131.937 303.139 132.429C305.515 135.25 308.052 138.02 310.647 141.027C306.758 141.581 307.33 141.398 292.223 143.21C291.651 143.221 291.086 143.079 290.586 142.801C287.719 139.934 284.994 136.933 282.125 133.931V133.247Z" fill="#38A1FF"/>
<path d="M289.358 143.62C284.718 144.166 280.209 144.433 275.71 145.399C274.144 145.824 272.48 145.704 270.992 145.057C269.504 144.41 268.281 143.276 267.524 141.841C266.029 139.85 264.435 137.937 262.745 136.109C262.694 136.041 262.661 135.962 262.647 135.878C262.633 135.794 262.64 135.708 262.667 135.628C262.694 135.547 262.741 135.474 262.802 135.416C262.863 135.357 262.938 135.314 263.02 135.291C279.657 133.512 277.276 133.669 279.123 133.512C279.942 133.512 280.354 134.053 280.903 134.602C283.926 137.41 286.751 140.423 289.358 143.62Z" fill="#38A1FF"/>
<path d="M220.99 141.574C225.628 140.89 228.228 140.402 233.817 139.663C237.096 139.228 238.451 137.949 240.093 140.753C242.754 145.297 244.195 145.473 246.236 148.533C238.311 149.412 234.661 150.025 229.86 150.444C227.776 150.444 227.573 149.585 220.853 142.118C220.798 142.086 220.756 142.037 220.731 141.978C220.707 141.92 220.702 141.856 220.718 141.794C220.733 141.733 220.768 141.678 220.817 141.639C220.866 141.599 220.927 141.576 220.99 141.574V141.574Z" fill="#38A1FF"/>
</svg>
